<?xml version="1.0" standalone="no"?>
<!DOCTYPE svg PUBLIC "-//W3C//DTD SVG 20010904//EN"
 "http://www.w3.org/TR/2001/REC-SVG-20010904/DTD/svg10.dtd">
<svg version="1.0" xmlns="http://www.w3.org/2000/svg"
 width="64.000000pt" height="64.000000pt" viewBox="0 0 64.000000 64.000000"
 preserveAspectRatio="xMidYMid meet">

<g transform="translate(0.000000,64.000000) scale(0.100000,-0.100000)"
fill="#000000" stroke="none">
<path d="M293 468 c-18 -8 -20 -16 -16 -44 4 -24 2 -34 -7 -34 -9 0 -10 -3 -1
-13 13 -16 -5 -190 -20 -195 -5 -2 -9 -8 -9 -13 0 -5 36 -9 80 -9 44 0 80 4
80 9 0 5 -5 11 -11 13 -15 5 -30 179 -17 196 7 8 7 12 -2 12 -9 0 -11 10 -7
34 5 29 2 35 -19 45 -14 6 -26 11 -27 10 -1 0 -12 -5 -24 -11z m47 -53 c0 -18
-5 -25 -20 -25 -15 0 -20 7 -20 25 0 18 5 25 20 25 15 0 20 -7 20 -25z"/>
<path d="M120 420 c0 -42 0 -42 32 -36 66 13 108 27 108 36 0 9 -42 23 -108
36 -32 6 -32 6 -32 -36z"/>
<path d="M475 455 c-5 -2 -29 -9 -52 -15 -24 -6 -43 -15 -43 -20 0 -9 42 -23
108 -36 32 -6 32 -6 32 35 0 41 -10 49 -45 36z"/>
</g>
</svg>
