<svg viewBox="0 0 1440 640" xmlns="http://www.w3.org/2000/svg" preserveAspectRatio="xMidYMid slice">
  <defs>
    <linearGradient id="sky" x1="0" y1="0" x2="0" y2="1">
      <stop offset="0" stop-color="#7de1ffff"/>
      <stop offset="1" stop-color="#ffe6ea"/>
    </linearGradient>
    
    <linearGradient id="glass" x1="0" y1="0" x2="0" y2="1">
      <stop offset="0" stop-color="#7de1ffff" stop-opacity="0.95"/>
      <stop offset="1" stop-color="#e9f3ff" stop-opacity="0.9"/>
    </linearGradient>
    <filter id="soft" x="-30%" y="-30%" width="160%" height="160%">
      <feDropShadow dx="0" dy="6" stdDeviation="8" flood-color="#E30611" flood-opacity=".18"/>
    </filter>
    <style>
      .r{fill:url(#redShade)}
      .mt-far{fill:#1A1A1A;opacity:.06}
      .mt-mid{fill:#cfd6db;opacity:.16}
      .wave{fill:#ffffff;opacity:.93}
    </style>
  </defs>

  <rect width="1440" height="640" fill="url(#sky)"/>

  <path class="mt-far" d="M0,400 120,360 240,390 360,350 480,380 600,340 720,390 860,360 1000,385 1140,350 1280,385 1440,360 1440,640 0,640Z"/>
  <path class="mt-mid" d="M0,460 120,420 240,455 360,410 480,450 600,415 720,470 860,430 1000,460 1140,420 1280,460 1440,430 1440,640 0,640Z"/>

  <path class="wave" d="M0,520 C160,500 320,560 480,540 640,520 800,560 960,540 1120,520 1280,560 1440,540 L1440,640 0,640Z"/>


</svg>